<?xml version="1.0" encoding="utf-8"?>
<!-- Generator: Adobe Illustrator 19.0.0, SVG Export Plug-In . SVG Version: 6.00 Build 0)  -->
<svg version="1.1" id="Layer_1" xmlns="http://www.w3.org/2000/svg" xmlns:xlink="http://www.w3.org/1999/xlink" x="0px" y="0px"
	 viewBox="0 0 218.3 222.8" style="enable-background:new 0 0 218.3 222.8;" xml:space="preserve">
<style type="text/css">
	.st0{fill:#F0ECE7;}
	.st1{fill:#D1D9E5;}
	.st2{fill:none;stroke:#5A5C5E;stroke-miterlimit:10;}
	.st3{fill:none;stroke:#5A5C5E;stroke-width:0.7616;stroke-miterlimit:10;}
	.st4{fill:#80D9F7;}
	.st5{fill:#BFD5E2;}
	.st6{fill:#EC6A71;}
	.st7{fill:#FDE2B2;}
	.st8{fill:#A8B9D0;}
	.st9{fill:none;stroke:#5A5C5E;stroke-linecap:round;stroke-linejoin:round;stroke-miterlimit:10;}
	.st10{fill:none;stroke:#E4EDF4;stroke-linecap:round;stroke-linejoin:round;stroke-miterlimit:10;}
	.st11{fill:none;stroke:#5A5C5E;stroke-width:0.9922;stroke-linecap:round;stroke-linejoin:round;stroke-miterlimit:10;}
	.st12{fill:none;stroke:#5A5C5E;stroke-width:0.8446;stroke-miterlimit:10;}
	.st13{fill:#F96885;}
	.st14{fill:#FA98AE;}
	.st15{fill:#DA5C7A;}
	.st16{fill:none;stroke:#5A5C5E;stroke-linecap:round;stroke-linejoin:round;}
	.st17{fill:#FDE1B2;}
	.st18{fill:#FDE1B3;}
	.st19{fill:#B1F3AD;}
	.st20{fill:#7ACFE5;}
	.st21{fill:#F96D70;}
	.st22{fill:#81D9F7;}
	.st23{fill:#FFFFFF;}
	.st24{fill:none;stroke:#5A5C5E;stroke-width:1.0952;stroke-linecap:round;stroke-linejoin:round;}
	.st25{fill:none;stroke:#FFFFFF;stroke-width:2;stroke-linecap:round;stroke-linejoin:round;}
</style>
<g id="XMLID_6_">
	<circle id="XMLID_1_" class="st0" cx="109.6" cy="77.4" r="76.9"/>
	<path id="XMLID_8_" class="st1" d="M109.6,0.5c-3.3,0-6.5,0.2-9.7,0.6c37.9,4.8,67.3,37.1,67.3,76.3c0,39.2-29.4,71.6-67.3,76.3
		c3.2,0.4,6.4,0.6,9.7,0.6c42.5,0,76.9-34.4,76.9-76.9C186.6,34.9,152.1,0.5,109.6,0.5z"/>
	<circle id="XMLID_2_" class="st2" cx="109.6" cy="77.4" r="76.9"/>
</g>
<g id="XMLID_27_">
	<line id="XMLID_9_" class="st2" x1="154.1" y1="21.5" x2="159.5" y2="21.5"/>
	<line id="XMLID_10_" class="st2" x1="163.2" y1="21.5" x2="177.8" y2="21.5"/>
	<line id="XMLID_11_" class="st2" x1="25.6" y1="45.9" x2="31.9" y2="45.9"/>
	<line id="XMLID_12_" class="st2" x1="39.5" y1="45.9" x2="51.1" y2="45.9"/>
	<line id="XMLID_13_" class="st2" x1="9.5" y1="105.9" x2="42" y2="105.9"/>
	<line id="XMLID_14_" class="st2" x1="45.3" y1="105.9" x2="49.9" y2="105.9"/>
	<line id="XMLID_15_" class="st2" x1="154.1" y1="97.6" x2="180.3" y2="97.6"/>
	<line id="XMLID_16_" class="st2" x1="184.7" y1="97.6" x2="193.2" y2="97.6"/>
	<path id="XMLID_7_" class="st2" d="M47.1,32.3h11.3c0,0,1.5-4.2,5.9-2.9c0,0,2.3-6.7,8.7-5.3s5.9,8.2,5.9,8.2H86"/>
	<path id="XMLID_18_" class="st2" d="M145.3,52.5c0,0-0.3-5.7,6-5.3c0,0,1.5-4.6,6.8-4.2c5.3,0.4,5.2,6.4,5.2,6.4s4-1,3.9,3.1h7.5"
		/>
	<line id="XMLID_19_" class="st2" x1="179.6" y1="52.5" x2="188.3" y2="52.5"/>
	<circle id="XMLID_17_" class="st2" cx="64.1" cy="108" r="2.3"/>
	<circle id="XMLID_20_" class="st2" cx="151" cy="77.9" r="2.3"/>
	<circle id="XMLID_21_" class="st2" cx="131.8" cy="32.3" r="2.3"/>
	
		<rect id="XMLID_22_" x="20.9" y="57.2" transform="matrix(0.7071 -0.7071 0.7071 0.7071 -35.406 34.151)" class="st2" width="5.3" height="5.3"/>
	
		<rect id="XMLID_23_" x="28.3" y="120.7" transform="matrix(0.7071 -0.7071 0.7071 0.7071 -78.1054 57.9911)" class="st2" width="5.3" height="5.3"/>
	
		<rect id="XMLID_24_" x="194.3" y="113.2" transform="matrix(0.7071 -0.7071 0.7071 0.7071 -24.2325 173.196)" class="st2" width="5.3" height="5.3"/>
	
		<rect id="XMLID_25_" x="165.2" y="64.4" transform="matrix(0.7071 -0.7071 0.7071 0.7071 2.0464 137.654)" class="st3" width="4" height="4"/>
	
		<rect id="XMLID_26_" x="54.2" y="78.2" transform="matrix(0.7071 -0.7071 0.7071 0.7071 -40.2736 63.2634)" class="st3" width="4" height="4"/>
</g>
<g id="XMLID_139_">
	<g id="XMLID_53_">
		<g id="XMLID_42_">
			<g id="XMLID_46_">
				<polygon id="XMLID_90_" class="st4" points="135.8,66.3 135.8,79.9 132.2,79.9 132.2,71.9 132.2,66.3 				"/>
				<path id="XMLID_89_" class="st4" d="M135.8,66.3h-3.6v-2.1V62C135.7,63.1,135.8,66.3,135.8,66.3z"/>
				<path id="XMLID_88_" class="st5" d="M132.2,79.9V114c0,0.4-0.2,0.7-0.5,0.9l-1.9,1.4c-0.2,0.1-0.4,0.2-0.7,0.2H128h-6h-1.3V71.9
					h0.5v44.2h5.9V71.9h2.4v7.9H132.2z"/>
				<rect id="XMLID_87_" x="129.6" y="71.9" class="st4" width="2.7" height="7.9"/>
				<rect id="XMLID_86_" x="129.6" y="66.3" class="st4" width="2.7" height="5.7"/>
				<rect id="XMLID_85_" x="129.6" y="64.1" class="st4" width="2.7" height="2.1"/>
				<path id="XMLID_84_" class="st4" d="M132.2,62v2.2h-2.7v-2.5C130.6,61.6,131.5,61.7,132.2,62z"/>
				<path id="XMLID_83_" class="st5" d="M132.2,61.2V62c-0.7-0.2-1.6-0.4-2.7-0.4v2.5h-2.4v-2c0-1.6-1.3-2.9-2.9-2.9h0
					c-1.6,0-2.9,1.3-2.9,2.9v2h-0.5v-2.9c0-6.5,3.4-10.8,5.9-10.8C129,50.5,132.3,54.8,132.2,61.2z"/>
				<path id="XMLID_82_" class="st6" d="M130.7,122.9c1,0,1.8,0.8,1.8,1.8c0,1-0.8,1.8-1.8,1.8h-11.4c-1,0-1.8-0.8-1.8-1.8
					c0-1,0.8-1.8,1.8-1.8h1h8.9H130.7z"/>
				<polygon id="XMLID_81_" class="st5" points="129.6,66.3 129.6,71.9 127.1,71.9 127.1,64.1 129.6,64.1 				"/>
				<path id="XMLID_54_" class="st7" d="M129.3,122.4v0.5h-8.9v-0.5c0-1.5,1.6-2.8,1.6-2.8v-2.9v-0.1h6v2.9
					C128,119.5,129.3,120.4,129.3,122.4z"/>
				<rect id="XMLID_51_" x="121.3" y="71.9" class="st8" width="5.9" height="44.2"/>
				<rect id="XMLID_50_" x="121.3" y="64.1" class="st8" width="5.9" height="7.8"/>
				<path id="XMLID_49_" class="st8" d="M127.1,62.1v2h-5.9v-2c0-1.6,1.3-2.9,2.9-2.9h0C125.8,59.2,127.1,60.5,127.1,62.1z"/>
				<rect id="XMLID_48_" x="120.8" y="64.1" class="st5" width="0.5" height="7.8"/>
			</g>
			<g id="XMLID_47_">
				<path id="XMLID_160_" class="st2" d="M132.2,79.9V114c0,0.4-0.2,0.7-0.5,0.9l-1.9,1.4c-0.2,0.1-0.4,0.2-0.7,0.2H128h-6h-1.3
					V71.9v-7.8v-2.9c0-6.5,3.4-10.8,5.9-10.8c2.4,0,5.7,4.4,5.6,10.8V62"/>
				<polyline id="XMLID_98_" class="st9" points="120.8,64.1 121.3,64.1 127.1,64.1 129.6,64.1 				"/>
				<polyline id="XMLID_97_" class="st9" points="120.8,71.9 121.3,71.9 127.1,71.9 129.6,71.9 				"/>
				<polyline id="XMLID_96_" class="st9" points="135.8,66.3 132.2,66.3 129.6,66.3 				"/>
				<path id="XMLID_95_" class="st9" d="M132.2,62c-0.7-0.2-1.6-0.4-2.7-0.4v2.5v2.1v5.7v7.9h2.7h3.6V66.3
					C135.8,66.3,135.7,63.1,132.2,62z"/>
				<path id="XMLID_94_" class="st10" d="M127,51.5c0,0,4.3,0.5,4.3,9"/>
				<path id="XMLID_93_" class="st11" d="M122,116.7v2.9c0,0-1.6,1.3-1.6,2.8"/>
				<path id="XMLID_92_" class="st9" d="M128,116.6v2.9c0,0,1.4,0.9,1.4,2.9"/>
				<path id="XMLID_91_" class="st12" d="M129.3,122.9h1.4c1,0,1.8,0.8,1.8,1.8c0,1-0.8,1.8-1.8,1.8h-11.4c-1,0-1.8-0.8-1.8-1.8
					c0-1,0.8-1.8,1.8-1.8h1H129.3z"/>
			</g>
		</g>
	</g>
	<g id="XMLID_101_">
		<g id="XMLID_102_">
			<g id="XMLID_125_">
				<polygon id="XMLID_137_" class="st4" points="83.4,66.3 83.4,79.9 87,79.9 87,71.9 87,66.3 				"/>
				<path id="XMLID_136_" class="st4" d="M83.4,66.3H87v-2.1V62C83.6,63.1,83.4,66.3,83.4,66.3z"/>
				<path id="XMLID_135_" class="st5" d="M87,79.9V114c0,0.4,0.2,0.7,0.5,0.9l1.9,1.4c0.2,0.1,0.4,0.2,0.7,0.2h1.2h6h1.3V71.9H98
					v44.2h-5.9V71.9h-2.4v7.9H87z"/>
				<rect id="XMLID_134_" x="87" y="71.9" class="st4" width="2.7" height="7.9"/>
				<rect id="XMLID_133_" x="87" y="66.3" class="st4" width="2.7" height="5.7"/>
				<rect id="XMLID_132_" x="87" y="64.1" class="st4" width="2.7" height="2.1"/>
				<path id="XMLID_131_" class="st4" d="M87,62v2.2h2.7v-2.5C88.6,61.6,87.8,61.7,87,62z"/>
				<path id="XMLID_130_" class="st5" d="M87,61.2V62c0.7-0.2,1.6-0.4,2.7-0.4v2.5h2.4v-2c0-1.6,1.3-2.9,2.9-2.9h0
					c1.6,0,2.9,1.3,2.9,2.9v2h0.5v-2.9c0-6.5-3.4-10.8-5.9-10.8C90.2,50.5,87,54.8,87,61.2z"/>
				<path id="XMLID_129_" class="st6" d="M88.5,122.9c-1,0-1.8,0.8-1.8,1.8c0,1,0.8,1.8,1.8,1.8h11.4c1,0,1.8-0.8,1.8-1.8
					c0-1-0.8-1.8-1.8-1.8h-1.1h-8.9H88.5z"/>
				<polygon id="XMLID_128_" class="st5" points="89.7,66.3 89.7,71.9 92.1,71.9 92.1,64.1 89.7,64.1 				"/>
				<path id="XMLID_127_" class="st7" d="M89.9,122.4v0.5h8.9v-0.5c0-1.5-1.6-2.8-1.6-2.8v-2.9v-0.1h-6v2.9
					C91.3,119.5,89.9,120.4,89.9,122.4z"/>
				<rect id="XMLID_126_" x="92.1" y="71.9" class="st8" width="5.9" height="44.2"/>
				<rect id="XMLID_124_" x="92.1" y="64.1" class="st8" width="5.9" height="7.8"/>
				<path id="XMLID_99_" class="st8" d="M92.1,62.1v2H98v-2c0-1.6-1.3-2.9-2.9-2.9h0C93.4,59.2,92.1,60.5,92.1,62.1z"/>
				<rect id="XMLID_80_" x="98" y="64.1" class="st5" width="0.5" height="7.8"/>
			</g>
			<g id="XMLID_115_">
				<path id="XMLID_161_" class="st2" d="M87,79.9V114c0,0.4,0.2,0.7,0.5,0.9l1.9,1.4c0.2,0.1,0.4,0.2,0.7,0.2h1.2h6h1.3V71.9v-7.8
					v-2.9c0-6.5-3.4-10.8-5.9-10.8c-2.4,0-5.7,4.4-5.6,10.8V62"/>
				<polyline id="XMLID_123_" class="st9" points="98.5,64.1 98,64.1 92.1,64.1 89.7,64.1 				"/>
				<polyline id="XMLID_122_" class="st9" points="98.5,71.9 98,71.9 92.1,71.9 89.7,71.9 				"/>
				<polyline id="XMLID_121_" class="st9" points="83.4,66.3 87,66.3 89.7,66.3 				"/>
				<path id="XMLID_120_" class="st9" d="M87,62c0.7-0.2,1.6-0.4,2.7-0.4v2.5v2.1v5.7v7.9H87h-3.6V66.3C83.4,66.3,83.6,63.1,87,62z"
					/>
				<path id="XMLID_119_" class="st10" d="M92.3,51.5c0,0-4.3,0.5-4.3,9"/>
				<path id="XMLID_118_" class="st11" d="M97.2,116.7v2.9c0,0,1.6,1.3,1.6,2.8"/>
				<path id="XMLID_117_" class="st9" d="M91.3,116.6v2.9c0,0-1.4,0.9-1.4,2.9"/>
				<path id="XMLID_116_" class="st12" d="M89.9,122.9h-1.4c-1,0-1.8,0.8-1.8,1.8c0,1,0.8,1.8,1.8,1.8h11.4c1,0,1.8-0.8,1.8-1.8
					c0-1-0.8-1.8-1.8-1.8h-1.1H89.9z"/>
			</g>
		</g>
	</g>
	<g id="XMLID_148_">
		<g id="XMLID_100_">
			<g id="XMLID_168_">
				<path id="XMLID_151_" class="st13" d="M120.3,40.7v71.5h-22V49.1c0.8-1.5,1.5-3,2.2-4.5c0.1-1,0.2-2.3,0.4-3.9H120.3z"/>
				<path id="XMLID_150_" class="st13" d="M120.3,34.9v5.7h-19.4c0.1-0.5,0.1-1,0.2-1.5c0.2-2.1,0.4-3.4,0.5-4.2H120.3z"/>
				<path id="XMLID_149_" class="st13" d="M120.3,34.9h-18.7c0-0.2,0.1-0.4,0.1-0.6c0.3-1.6,0.7-4.2,1.8-7.4
					c0.1-0.4,0.8-2.3,1.9-4.6c0.7-1.5,1.2-2.4,1.5-2.8c1.2-1.9,1.8-2.9,2.7-3.3c1.7-0.8,3.7,0.1,4.4,0.5l0,0
					C118.5,22.5,120.3,34.9,120.3,34.9z"/>
				<path id="XMLID_142_" class="st14" d="M114.1,16.7L114.1,16.7c-0.8-0.4-2.7-1.3-4.4-0.5c-0.9,0.4-1.5,1.4-2.7,3.3
					c-0.3,0.4-0.8,1.3-1.5,2.8c-1.1,2.3-1.8,4.2-1.9,4.6c-1.1,3.2-1.5,5.8-1.8,7.4c0,0.2-0.1,0.4-0.1,0.6h-3.3c0,0,3-21.2,11-21.2
					C111.1,13.8,112.7,14.9,114.1,16.7z"/>
				<path id="XMLID_140_" class="st14" d="M98.2,34.9h3.3c-0.1,0.9-0.3,2.1-0.5,4.2c-0.1,0.5-0.1,1-0.2,1.5h-2.7V34.9z"/>
				<path id="XMLID_138_" class="st14" d="M98.2,40.7h2.7c-0.2,1.6-0.3,2.9-0.4,3.9c-0.8,1.5-1.5,3-2.2,4.5V40.7z"/>
			</g>
			<g id="XMLID_164_">
				<path id="XMLID_155_" class="st2" d="M98.2,49.1v63.1h22V40.7v-5.7c0,0-1.8-12.5-6.2-18.3c-1.3-1.8-3-2.9-4.8-2.9
					c-8,0-11,21.2-11,21.2v5.7V49.1z"/>
				<polyline id="XMLID_153_" class="st2" points="98.2,34.9 101.6,34.9 120.3,34.9 				"/>
				<polyline id="XMLID_152_" class="st2" points="98.2,40.7 100.9,40.7 120.3,40.7 				"/>
			</g>
		</g>
		<path id="XMLID_156_" class="st15" d="M120.3,111.6h-8.4V35.1c0-2.3,1.9-4.1,4.2-4.1h0c0.3,0,1.6,0.1,2.7,1.1
			c1.3,1.2,1.3,2.8,1.2,3C120.1,60.6,120.2,86.1,120.3,111.6z"/>
		<line id="XMLID_157_" class="st16" x1="98.2" y1="40.7" x2="120.3" y2="40.7"/>
	</g>
	<g id="XMLID_59_">
		<g id="XMLID_62_">
			<path id="XMLID_79_" class="st17" d="M102.1,116.3c0-3.1,2.4-4.3,2.4-4.3v-4.3h4.7h4.6v4.3c0,0,2.1,0.4,2.1,4.3c0,0,0,0,0,0
				h-13.5C102.3,116.3,102.2,116.3,102.1,116.3L102.1,116.3z"/>
			<path id="XMLID_71_" class="st18" d="M130.3,98.9v4l-13.4,3.1V82.1l12.8,15.3C130.1,97.8,130.3,98.4,130.3,98.9z"/>
			<path id="XMLID_70_" class="st19" d="M135,97v4.9l-4.7,1.1v-4c0-0.6-0.2-1.1-0.6-1.6l-12.8-15.3v-7.6l17.6,21.2
				C134.8,96,135,96.5,135,97z"/>
			<path id="XMLID_69_" class="st18" d="M101.6,82.1V106l-13.4-3.1v-4c0-0.6,0.2-1.1,0.6-1.6L101.6,82.1z"/>
			<path id="XMLID_68_" class="st20" d="M109.2,46.4c4.9,0,7.6,16.6,7.6,16.6v11.4v7.6V106v1.7h-3h-4.6l0-48.6V46.4z"/>
			<path id="XMLID_67_" class="st21" d="M116,116.3c1.1,0,2,1,2,2.1c0,0.6-0.2,1.1-0.6,1.5c-0.4,0.4-0.9,0.6-1.5,0.6h-13.5
				c-1.1,0-2.1-0.9-2.1-2.1c0-0.6,0.2-1.1,0.6-1.5c0.3-0.3,0.7-0.5,1.1-0.6c0.1,0,0.2,0,0.3,0H116
				C115.9,116.3,115.9,116.3,116,116.3z"/>
			<path id="XMLID_65_" class="st22" d="M101.6,63.3c0,0,2.8-16.9,7.7-16.9v12.7l0,48.6h-4.7h-2.9V106V82.1v-7.6V63.3z"/>
			<path id="XMLID_64_" class="st19" d="M101.6,74.5v7.6L88.8,97.4c-0.4,0.4-0.6,1-0.6,1.6v4l-4.7-1.1V97c0-0.5,0.2-0.9,0.5-1.3
				L101.6,74.5z"/>
		</g>
		<g id="XMLID_63_">
			<path id="XMLID_163_" class="st2" d="M101.6,74.5V63.3c0,0,2.8-16.9,7.7-16.9c4.9,0,7.6,16.6,7.6,16.6v11.4"/>
			<polyline id="XMLID_162_" class="st2" points="116.9,106 116.9,107.7 113.8,107.7 109.3,107.7 104.5,107.7 101.6,107.7 
				101.6,106 			"/>
			<path id="XMLID_78_" class="st2" d="M104.5,107.7v4.3c0,0-2.4,1.1-2.4,4.3"/>
			<path id="XMLID_77_" class="st2" d="M113.8,107.7v4.3c0,0,2.1,0.4,2.1,4.3"/>
			<path id="XMLID_76_" class="st2" d="M116,116.3c1.1,0,2,1,2,2.1c0,0.6-0.2,1.1-0.6,1.5c-0.4,0.4-0.9,0.6-1.5,0.6h-13.5
				c-1.1,0-2.1-0.9-2.1-2.1c0-0.6,0.2-1.1,0.6-1.5c0.3-0.3,0.7-0.5,1.1-0.6c0.1,0,0.2,0,0.3,0H116
				C115.9,116.3,115.9,116.3,116,116.3z"/>
			<path id="XMLID_75_" class="st9" d="M116.9,74.5l17.6,21.2c0.3,0.4,0.5,0.8,0.5,1.3v4.9l-4.7,1.1l-13.4,3.1V82.1V74.5"/>
			<path id="XMLID_74_" class="st9" d="M116.9,82.1l12.8,15.3c0.4,0.4,0.6,1,0.6,1.6v4"/>
			<path id="XMLID_73_" class="st9" d="M101.6,74.5L84,95.7c-0.3,0.4-0.5,0.8-0.5,1.3v4.9l4.7,1.1l13.4,3.1V82.1V74.5"/>
			<path id="XMLID_72_" class="st9" d="M101.6,82.1L88.8,97.4c-0.4,0.4-0.6,1-0.6,1.6v4"/>
			<path id="XMLID_66_" class="st9" d="M113.1,61.8c-0.6-1.6-2.2-2.7-3.9-2.7c0,0-0.1,0-0.1,0c-1.7,0-3.2,1.1-3.8,2.7"/>
		</g>
	</g>
	<line id="XMLID_158_" class="st16" x1="98.2" y1="34.9" x2="120.3" y2="34.9"/>
</g>
<g id="XMLID_159_">
	<g id="XMLID_184_">
		<path id="XMLID_187_" class="st23" d="M181.5,135.3l0.5-0.2c9.1-2,11.5,5.8,11.5,5.8h20.9c1,0,1.5,1.2,0.8,1.9l-80.8,78.9
			l-130.4-71c-0.8-0.5-0.5-1.7,0.4-1.7h15.4c0,0,0.5-10.1,11-8.5c0,0,2.2-6.3,11.2-6.3c0,0,4.7-10.3,14.8-10.3s14.5,9.8,14.5,9.8
			s7.4-1.2,11.9,5.4c0,0,0,0,0,0c0.2-0.1,2.7-1.7,5.5-1.5c0-3.8-0.1-7.5-0.1-11.3c3.6,0,7.2,0,10.8,0c0,4.2,0.1,8.4,0.1,12.6
			l0.1,0.1c0.9-1.5,2.4-2.8,5-3.3v-15.4h8.9v12.1c0,0,4.8-0.5,7.5,3.2l0,0c0-3.1,0-6.2,0-9.3c2.7,0,5.5,0,8.2,0
			c0,3.7,0.1,7.4,0.1,11.1l0.1,0.1c0.9-0.7,2.1-1.4,3.4-1.7c1.8-0.4,4.4,0,6.2,1.9c0.9,1,1.3,2,1.5,3c5.6-2.7,9.2-1.8,11.6,0.2
			l1-0.2c0.5-6.1,4-11.5,9.2-13.9c1.2-0.5,7.5-3.2,13.4,0.5C179.2,129.7,180.8,133,181.5,135.3z"/>
	</g>
	<g id="XMLID_185_">
		<path id="XMLID_209_" class="st24" d="M83.3,139.2c-4.5-6.7-11.9-5.4-11.9-5.4s-4.4-9.8-14.5-9.8s-14.8,10.3-14.8,10.3
			c-9,0-11.2,6.3-11.2,6.3c-10.4-1.6-11,8.5-11,8.5H4.5c-0.9,0-1.3,1.2-0.4,1.7l130.4,71l80.8-78.9c0.7-0.7,0.2-1.9-0.8-1.9h-20.9
			c0,0-2.4-7.8-11.5-5.8"/>
		<path id="XMLID_205_" class="st24" d="M85.1,142.8c-0.5-1.4-1.1-2.6-1.8-3.6"/>
		<path id="XMLID_208_" class="st16" d="M88.8,137.7c0.4,0,0.8,0.1,1.2,0.2c2.1,0.5,4.1,2.2,5.2,6.3"/>
		<path id="XMLID_207_" class="st24" d="M83.3,139.2C83.3,139.2,83.3,139.2,83.3,139.2c0.2-0.1,2.7-1.7,5.5-1.5"/>
		<path id="XMLID_199_" class="st16" d="M49.2,160.1h8.2c0,0,5.2-6,11.5-6c6.3,0,11,7.7,11,7.7s7.4-0.8,11,6.6c0,0,5.5-2.1,7.9,4.4"
			/>
		<path id="XMLID_198_" class="st24" d="M182,159.8h-9c0,0-5.7-6.6-12.6-6.6c-6.9,0-12,8.4-12,8.4s-8.1-0.9-12,7.2
			c0,0-6-2.3-8.7,4.8"/>
		<path id="XMLID_197_" class="st16" d="M87.7,156.3c0,0,3-5,7.6-5c4.6,0,7.4,6.1,7.4,6.1s7-3.1,9,5"/>
		<path id="XMLID_194_" class="st24" d="M182,137.9c0-0.3-0.1-1.3-0.5-2.6c-0.7-2.3-2.2-5.6-5.7-7.8c-5.9-3.7-12.2-1-13.4-0.5
			c-5.3,2.4-8.8,7.7-9.2,13.9"/>
		<path id="XMLID_195_" class="st24" d="M156.2,149.1c0,0-0.7-5.1-4.1-8c-2.3-2-6-2.9-11.6-0.2c0,0-0.1,0-0.1,0"/>
		<path id="XMLID_203_" class="st24" d="M140.4,144.1c0-0.1,0.4-1.6,0.1-3.3c-0.2-1-0.6-2.1-1.5-3c-1.8-1.9-4.3-2.3-6.2-1.9
			c-1.2,0.3-2.4,1-3.4,1.7c-1.1,0.8-1.8,1.5-1.8,1.5"/>
		<path id="XMLID_206_" class="st24" d="M98.8,146c0,0-1-3.9,0.9-6.9c0.9-1.5,2.4-2.8,5-3.3c0.8-0.2,1.7-0.3,2.7-0.3"/>
		<path id="XMLID_192_" class="st24" d="M126.4,150.8c0,0,0.9-7.5,8.1-4.8"/>
		<path id="XMLID_193_" class="st24" d="M110.8,148.2c0,0,5.9-4,8.7,2"/>
		<path id="XMLID_191_" class="st24" d="M124.4,142.6c-6.7-0.9-8,4.3-8,4.3"/>
		<path id="XMLID_200_" class="st16" d="M88.8,137.7L88.8,137.7c0-3.8-0.1-7.5-0.1-11.3c3.6,0,7.2,0,10.8,0c0,4.2,0.1,8.4,0.1,12.6"
			/>
		<polyline id="XMLID_188_" class="st16" points="104.7,135.8 104.7,135.8 104.7,120.4 113.6,120.4 113.6,132.5 113.6,137.7 		"/>
		<path id="XMLID_190_" class="st16" d="M113.6,132.5c0,0,4.8-0.5,7.5,3.2c1,1.4,1.7,3.4,1.7,6.2"/>
		<path id="XMLID_189_" class="st24" d="M121.1,135.7c0-3.1,0-6.2,0-9.3c2.7,0,5.5,0,8.2,0c0,3.7,0.1,7.4,0.1,11.1"/>
	</g>
</g>
<polyline id="XMLID_204_" class="st25" points="1,149.1 134.5,221.8 217.3,140.9 "/>
</svg>
