<?xml version="1.0" encoding="utf-8"?>
<!-- Generator: Adobe Illustrator 19.0.0, SVG Export Plug-In . SVG Version: 6.00 Build 0)  -->
<svg version="1.1" id="Layer_1" xmlns="http://www.w3.org/2000/svg" xmlns:xlink="http://www.w3.org/1999/xlink" x="0px" y="0px"
	 viewBox="0 0 5075.4 2374.5" style="enable-background:new 0 0 5075.4 2374.5;" xml:space="preserve">
<style type="text/css">
	.st0{fill:#F7C351;}
	.st1{fill:none;stroke:#000000;stroke-width:18.9324;stroke-miterlimit:10;stroke-dasharray:21.637,27.0463;}
	.st2{fill:none;stroke:#000000;stroke-width:18.9324;stroke-miterlimit:10;}
	.st3{fill:none;stroke:#000000;stroke-width:21.637;stroke-miterlimit:10;stroke-dasharray:21.637,35.1602;}
	.st4{fill:#F8C34F;}
	.st5{fill:none;stroke:#FFFFFF;stroke-width:21.637;stroke-miterlimit:10;}
	.st6{fill:none;stroke:#000000;stroke-width:18.9324;stroke-linecap:round;stroke-miterlimit:10;}
	.st7{fill:none;stroke:#F8C34F;stroke-width:121.7083;stroke-miterlimit:10;}
	.st8{fill:none;stroke:#000000;stroke-width:21.637;stroke-miterlimit:10;stroke-dasharray:51.3879,56.7972;}
	.st9{fill:none;stroke:#000000;stroke-width:21.637;stroke-miterlimit:10;}
	.st10{fill:#F7C44F;stroke:#000000;stroke-width:18.9324;stroke-linecap:round;stroke-miterlimit:10;}
	.st11{fill:#F7C44F;stroke:#000000;stroke-width:18.9324;stroke-miterlimit:10;}
	.st12{fill:#7FC2EB;}
	.st13{fill:none;stroke:#000000;stroke-width:21.637;stroke-miterlimit:10;stroke-dasharray:21.637,24.3417;}
	.st14{fill:#F7F9F8;}
	.st15{fill:#5EB4E7;}
	.st16{fill:none;stroke:#000000;stroke-width:16.2278;stroke-miterlimit:10;}
	.st17{fill:none;stroke:#000000;stroke-width:16.2278;stroke-miterlimit:10;stroke-dasharray:16.2278,10.8185;}
	.st18{fill:none;stroke:#FCFCFC;stroke-width:16.2278;stroke-miterlimit:10;}
	.st19{fill:none;stroke:#000000;stroke-width:21.637;stroke-miterlimit:10;stroke-dasharray:1.016711e-02,0,0,0;}
	.st20{fill:none;stroke:#000000;stroke-width:21.637;stroke-miterlimit:10;stroke-dasharray:21.9986,27.4881,1.016711e-02,0,0,0;}
	.st21{fill:none;stroke:#000000;stroke-width:21.637;stroke-miterlimit:10;stroke-dasharray:1.050164e-02,0,0,0;}
	.st22{fill:none;stroke:#000000;stroke-width:21.637;stroke-miterlimit:10;stroke-dasharray:22.7224,28.3925,1.050164e-02,0,0,0;}
	.st23{fill:none;stroke:#5EB4E7;stroke-width:108.1851;stroke-miterlimit:10;}
	.st24{fill:#5FB4E8;}
	.st25{fill:none;stroke:#000000;stroke-width:16.2278;stroke-miterlimit:10;stroke-dasharray:59.5018,32.4555,0,0,0,0;}
	.st26{fill:none;stroke:#5EB6E6;stroke-width:54.0926;stroke-miterlimit:10;}
	.st27{fill:none;stroke:#5EB6E6;stroke-width:54.0926;stroke-miterlimit:10;stroke-dasharray:70.3203,54.0926,0,0,0,0;}
	.st28{fill:none;stroke:#000000;stroke-width:24.3417;stroke-miterlimit:10;}
	.st29{fill:#F7F9F8;stroke:#000000;stroke-width:13.5231;stroke-miterlimit:10;}
	.st30{fill:none;stroke:#020202;stroke-width:13.5231;stroke-miterlimit:10;}
	.st31{fill:#5DB4E7;stroke:#5DB4E7;stroke-width:2.7046;stroke-miterlimit:10;}
	.st32{fill:none;stroke:#020202;stroke-width:16.2278;stroke-miterlimit:10;}
	.st33{opacity:0.5;fill:#F7C351;}
	.st34{fill:none;stroke:#000000;stroke-width:12;stroke-linecap:round;stroke-miterlimit:10;}
	.st35{fill:#5C5C5C;stroke:#000000;stroke-width:12;stroke-linecap:round;stroke-miterlimit:10;}
	.st36{fill:none;stroke:#000000;stroke-width:12;stroke-miterlimit:10;}
</style>
<circle id="XMLID_196_" class="st0" cx="3641.9" cy="2011.2" r="132.4"/>
<line id="XMLID_122_" class="st1" x1="2163.8" y1="2126.4" x2="2330.3" y2="2126.4"/>
<polyline id="XMLID_120_" class="st1" points="2340.3,1878.7 2121.6,1878.7 2121.6,2089.1 "/>
<line id="XMLID_115_" class="st1" x1="2369.4" y1="2086.8" x2="2369.4" y2="1906.9"/>
<rect id="XMLID_119_" x="2093.5" y="1845.4" class="st2" width="66.6" height="66.6"/>
<path id="XMLID_5_" class="st3" d="M876.7,537.3c40.9-32.8,67-83.2,67-139.6c0-98.8-80.1-179-179-179s-179,80.1-179,179
	c0,54.2,24.1,102.8,62.1,135.6"/>
<path id="XMLID_6_" class="st4" d="M693.6,575c0-41.8-36.8-88.2-36.8-88.2c-15.5-21.7-24.5-48.2-24.5-76.8
	c0-73.2,59.3-132.5,132.5-132.5s132.5,59.3,132.5,132.5c0,27.4-8.3,52.9-22.6,74.1c0,0-43.4,50.3-43.4,91H693.6z"/>
<path id="XMLID_1_" class="st5" d="M757.8,310.1c-54,0-97.8,43.8-97.8,97.8"/>
<line id="XMLID_8_" class="st2" x1="844.4" y1="620.7" x2="674.3" y2="620.7"/>
<line id="XMLID_9_" class="st2" x1="842.9" y1="582" x2="672.7" y2="582"/>
<line id="XMLID_10_" class="st2" x1="692.6" y1="582" x2="692.6" y2="620.7"/>
<line id="XMLID_7_" class="st2" x1="724.2" y1="582" x2="698.7" y2="433.2"/>
<line id="XMLID_12_" class="st2" x1="827.1" y1="433.2" x2="798.6" y2="582"/>
<path id="XMLID_11_" class="st2" d="M700.2,437.4c1.8,2.4,3.6,4.9,5.4,7.3c1.4,0.8,4.7,2.5,9.2,2.3c3.6-0.1,6.3-1.3,7.7-2.1l8.4-6.9
	c3.4-2.7,8.5-2.5,11.5,0.4l12,11.5c4.1,3.9,10.7,4.1,15.1,0.4l11.8-10c4.6-3.9,11.8-3.2,15.5,1.5l4.6,5.8c4.9,3.4,11.2,4.1,16.4,1.5
	c6.3-3.1,8.1-9.4,8.4-10.4"/>
<path id="XMLID_14_" class="st6" d="M219.5,433.8l27,28.6c5.1,5.4,13.8,5.4,18.9-0.2l19.7-21.7c4.8-5.3,13.1-5.6,18.4-0.7l19.7,18.7
	c4.9,4.7,12.6,4.7,17.5,0.2l21-19.2c5.2-4.8,13.4-4.4,18.2,0.8l19.9,21.9c5,5.5,13.7,5.6,18.8,0.2l19.9-21.1
	c5.3-5.6,14.2-5.3,19.2,0.5l25.8,30.6"/>
<path id="XMLID_13_" class="st6" d="M128.1,555.6l27,28.6c5.1,5.4,13.8,5.4,18.9-0.2l19.7-21.7c4.8-5.3,13.1-5.6,17.5-1.4l19.7,18.7
	c5.7,5.4,13.4,5.5,18.3,0.9l21-19.2c5.2-4.8,13.4-4.4,18.2,0.8l19.9,21.9c5,5.5,13.7,5.6,18.8,0.2l19.9-21.1
	c5.3-5.6,14.2-5.3,19.2,0.5l25.8,30.6"/>
<path id="XMLID_19_" class="st6" d="M1003.9,914.6h29.9c34.8,0,63-28.2,63-63c0-34.8-28.2-63-63-63H483.5c-34.8,0-63-28.2-63-63
	c0-34.8,28.2-63,63-63h329.3"/>
<path id="XMLID_15_" class="st6" d="M990.8,1106.5H514.2c-7.2,0-13.1-5.9-13.1-13.1V864.7c0-7.2,5.9-13.1,13.1-13.1h476.6
	c7.2,0,13.1,5.9,13.1,13.1v228.8C1003.9,1100.7,998,1106.5,990.8,1106.5z"/>
<line id="XMLID_21_" class="st2" x1="544.3" y1="898.9" x2="577.2" y2="898.9"/>
<line id="XMLID_22_" class="st2" x1="599.4" y1="898.9" x2="632.3" y2="898.9"/>
<line id="XMLID_23_" class="st2" x1="656.3" y1="898.9" x2="689.2" y2="898.9"/>
<line id="XMLID_24_" class="st2" x1="707.8" y1="898.9" x2="740.7" y2="898.9"/>
<line id="XMLID_25_" class="st2" x1="764.7" y1="898.9" x2="797.6" y2="898.9"/>
<line id="XMLID_26_" class="st2" x1="819.2" y1="898.9" x2="852.1" y2="898.9"/>
<line id="XMLID_27_" class="st2" x1="874.8" y1="898.9" x2="907.7" y2="898.9"/>
<line id="XMLID_28_" class="st2" x1="928.1" y1="898.9" x2="961.1" y2="898.9"/>
<line id="XMLID_36_" class="st2" x1="544.1" y1="949.9" x2="577" y2="949.9"/>
<line id="XMLID_35_" class="st2" x1="599.2" y1="949.9" x2="632.1" y2="949.9"/>
<line id="XMLID_34_" class="st2" x1="656.1" y1="949.9" x2="689" y2="949.9"/>
<line id="XMLID_33_" class="st2" x1="707.6" y1="949.9" x2="740.5" y2="949.9"/>
<line id="XMLID_32_" class="st2" x1="764.6" y1="949.9" x2="797.5" y2="949.9"/>
<line id="XMLID_31_" class="st2" x1="819" y1="949.9" x2="852" y2="949.9"/>
<line id="XMLID_30_" class="st2" x1="874.6" y1="949.9" x2="907.6" y2="949.9"/>
<line id="XMLID_29_" class="st2" x1="928" y1="949.9" x2="960.9" y2="949.9"/>
<line id="XMLID_44_" class="st2" x1="544.1" y1="1002.1" x2="577" y2="1002.1"/>
<line id="XMLID_43_" class="st2" x1="599.2" y1="1002.1" x2="632.1" y2="1002.1"/>
<line id="XMLID_42_" class="st2" x1="656.1" y1="1002.1" x2="689" y2="1002.1"/>
<line id="XMLID_41_" class="st2" x1="707.6" y1="1002.1" x2="740.5" y2="1002.1"/>
<line id="XMLID_40_" class="st2" x1="764.6" y1="1002.1" x2="797.5" y2="1002.1"/>
<line id="XMLID_39_" class="st2" x1="819" y1="1002.1" x2="852" y2="1002.1"/>
<line id="XMLID_38_" class="st2" x1="874.6" y1="1002.1" x2="907.6" y2="1002.1"/>
<line id="XMLID_37_" class="st2" x1="928" y1="1002.1" x2="960.9" y2="1002.1"/>
<line id="XMLID_52_" class="st2" x1="544.1" y1="1050.9" x2="577" y2="1050.9"/>
<line id="XMLID_51_" class="st2" x1="599.2" y1="1050.9" x2="632.1" y2="1050.9"/>
<line id="XMLID_50_" class="st2" x1="656.1" y1="1050.9" x2="852" y2="1050.9"/>
<line id="XMLID_49_" class="st2" x1="707.6" y1="1050.9" x2="740.5" y2="1050.9"/>
<line id="XMLID_48_" class="st2" x1="764.6" y1="1050.9" x2="797.5" y2="1050.9"/>
<line id="XMLID_47_" class="st2" x1="819" y1="1050.9" x2="852" y2="1050.9"/>
<line id="XMLID_46_" class="st2" x1="874.6" y1="1050.9" x2="907.6" y2="1050.9"/>
<line id="XMLID_45_" class="st2" x1="928" y1="1050.9" x2="960.9" y2="1050.9"/>
<path id="XMLID_53_" class="st7" d="M491.7,923.6H254c-106.7,0-193.1,98.5-193.1,219.9c0,121.5,86.5,219.9,193.1,219.9h1063.2"/>
<path id="XMLID_54_" class="st7" d="M1317.2,1363.4c62,0,112.3,48.9,112.3,109.2c0,60.3-50.3,109.2-112.3,109.2h-231.7"/>
<path id="XMLID_20_" class="st8" d="M1094.4,1581.8h231.7c62,0,112.3-48.9,112.3-109.2c0-60.3-50.3-109.2-112.3-109.2H262.8
	c-106.7,0-193.1-98.5-193.1-219.9c0-121.5,86.5-219.9,193.1-219.9h237.7"/>
<g id="XMLID_57_">
	<rect id="XMLID_56_" x="515.8" y="1496.1" class="st9" width="156.8" height="157.7"/>
	<line id="XMLID_58_" class="st9" x1="515.8" y1="1653.8" x2="672.6" y2="1496.1"/>
	<line id="XMLID_59_" class="st9" x1="672.6" y1="1653.8" x2="515.8" y2="1496.1"/>
</g>
<g id="XMLID_61_">
	<rect id="XMLID_64_" x="719" y="1496.1" class="st9" width="156.8" height="157.7"/>
	<line id="XMLID_63_" class="st9" x1="719" y1="1653.8" x2="875.8" y2="1496.1"/>
	<line id="XMLID_62_" class="st9" x1="875.8" y1="1653.8" x2="719" y2="1496.1"/>
</g>
<g id="XMLID_65_">
	<rect id="XMLID_68_" x="920" y="1496.1" class="st9" width="156.8" height="157.7"/>
	<line id="XMLID_67_" class="st9" x1="920" y1="1653.8" x2="1076.9" y2="1496.1"/>
	<line id="XMLID_66_" class="st9" x1="1076.9" y1="1653.8" x2="920" y2="1496.1"/>
</g>
<line id="XMLID_70_" class="st6" x1="282.6" y1="1761.8" x2="501.1" y2="1761.8"/>
<path id="XMLID_71_" class="st6" d="M282.6,1761.8c-49.6,0-89.8-41.8-89.8-93.4s40.2-93.4,89.8-93.4h233.1"/>
<rect id="XMLID_60_" x="515.8" y="1704.7" class="st10" width="561.1" height="93.2"/>
<line id="XMLID_73_" class="st6" x1="571.4" y1="1704.7" x2="571.4" y2="1745.7"/>
<line id="XMLID_74_" class="st6" x1="608.5" y1="1704.7" x2="608.5" y2="1728.5"/>
<line id="XMLID_75_" class="st6" x1="649.1" y1="1704.7" x2="649.1" y2="1745.7"/>
<line id="XMLID_76_" class="st6" x1="685.7" y1="1704.7" x2="685.7" y2="1728.5"/>
<line id="XMLID_80_" class="st6" x1="722.9" y1="1704.7" x2="722.9" y2="1745.7"/>
<line id="XMLID_79_" class="st6" x1="760" y1="1704.7" x2="760" y2="1728.5"/>
<line id="XMLID_78_" class="st6" x1="800.6" y1="1704.7" x2="800.6" y2="1745.7"/>
<line id="XMLID_77_" class="st6" x1="837.2" y1="1704.7" x2="837.2" y2="1728.5"/>
<line id="XMLID_84_" class="st6" x1="875.8" y1="1704.7" x2="875.8" y2="1745.7"/>
<line id="XMLID_83_" class="st6" x1="912.9" y1="1704.7" x2="912.9" y2="1728.5"/>
<line id="XMLID_82_" class="st6" x1="953.5" y1="1704.7" x2="953.5" y2="1745.7"/>
<line id="XMLID_81_" class="st6" x1="990.1" y1="1704.7" x2="990.1" y2="1728.5"/>
<line id="XMLID_85_" class="st6" x1="1029.2" y1="1704.7" x2="1029.2" y2="1745.7"/>
<line id="XMLID_86_" class="st11" x1="666.1" y1="1883" x2="1058.3" y2="1883"/>
<line id="XMLID_87_" class="st11" x1="666.1" y1="1936.1" x2="966.7" y2="1936.1"/>
<circle id="XMLID_72_" class="st12" cx="571.4" cy="1915.3" r="64.2"/>
<polyline id="XMLID_88_" class="st5" points="537.2,1921 558.6,1941.3 605.6,1882.5 "/>
<line id="XMLID_90_" class="st9" x1="1076.9" y1="1761.8" x2="1394.6" y2="1761.8"/>
<path id="XMLID_92_" class="st9" d="M1689.9,1825.6l64.9-63.8l-68.6-64.5l69,63.5c0.4,0.3,0.1,1-0.4,1h-283.1"/>
<line id="XMLID_93_" class="st9" x1="1316.2" y1="1925.8" x2="1412.2" y2="1925.8"/>
<line id="XMLID_94_" class="st9" x1="1438.4" y1="1925.8" x2="1471.7" y2="1925.8"/>
<line id="XMLID_95_" class="st13" x1="1429.6" y1="1990.3" x2="1623.5" y2="1990.3"/>
<g id="XMLID_113_">
	<g id="XMLID_102_">
		<g id="XMLID_107_">
			<polygon class="st14" points="2259,1945.7 2287.9,2035.5 2196.4,2009.7 			"/>
			<polygon class="st4" points="2259,1945.7 2196.4,2009.7 1776,1598.2 1838.6,1534.2 			"/>
		</g>
		<g id="XMLID_108_">
			<polygon class="st2" points="2259,1945.7 1838.6,1534.2 1776,1598.2 2196.4,2009.7 2287.9,2035.5 			"/>
			<line class="st2" x1="2196.4" y1="2009.7" x2="2259" y2="1945.7"/>
		</g>
	</g>
	<path id="XMLID_112_" class="st2" d="M1838.7,1534.2l-33.5-33.1c-2.5-2.4-6.4-2.4-8.9,0.1l-54.2,54.8c-2.4,2.5-2.4,6.4,0.1,8.9
		l17.3,17.1l16.4,16.2"/>
</g>
<g id="XMLID_100_">
	<line id="XMLID_96_" class="st9" x1="2146.1" y1="1579.1" x2="1787" y2="1946.5"/>
	<line id="XMLID_97_" class="st9" x1="2171.2" y1="1603.2" x2="1812.1" y2="1970.5"/>
	<line id="XMLID_98_" class="st9" x1="2195.7" y1="1626.7" x2="1836.6" y2="1994.1"/>
	<path id="XMLID_99_" class="st9" d="M1795.7,1943.4l44,42.2c2,1.9,1.4,5-1,5.9l-72.2,25.8l22.6-72.5
		C1789.9,1942,1793.4,1941.2,1795.7,1943.4z"/>
	
		<rect id="XMLID_91_" x="2143.5" y="1559.4" transform="matrix(0.7217 0.6922 -0.6922 0.7217 1706.317 -1074.0975)" class="st15" width="90.6" height="50.9"/>
	<path id="XMLID_101_" class="st2" d="M2192,1529.1l12.7-13.3c1.1-1.1,2.9-1.2,4-0.1l47.3,45.3c1.1,1.1,1.2,2.9,0.1,4l-12.7,13.3"/>
</g>
<rect id="XMLID_114_" x="2093.5" y="2093.1" class="st2" width="66.6" height="66.6"/>
<rect id="XMLID_116_" x="2336" y="2093.1" class="st2" width="66.6" height="66.6"/>
<rect id="XMLID_117_" x="2336" y="1845.4" class="st2" width="66.6" height="66.6"/>
<g id="XMLID_121_">
	<line id="XMLID_123_" class="st16" x1="2539" y1="1503.1" x2="2495.5" y2="1546.6"/>
	<line id="XMLID_124_" class="st16" x1="2495.5" y1="1503.1" x2="2539" y2="1546.6"/>
</g>
<line id="XMLID_127_" class="st16" x1="1740.4" y1="643" x2="2310.5" y2="643"/>
<line id="XMLID_128_" class="st17" x1="1775.3" y1="611" x2="1849.7" y2="611"/>
<line id="XMLID_129_" class="st16" x1="2012.1" y1="688" x2="1835.7" y2="688"/>
<line id="XMLID_130_" class="st17" x1="1775.3" y1="688" x2="1793.9" y2="688"/>
<rect id="XMLID_126_" x="1775.3" y="724.5" class="st15" width="502.7" height="145.7"/>
<line id="XMLID_131_" class="st18" x1="2114.8" y1="785.4" x2="1938.4" y2="785.4"/>
<rect id="XMLID_132_" x="1775.3" y="895.1" class="st4" width="152.4" height="77.4"/>
<rect id="XMLID_134_" x="1949.3" y="895.1" class="st4" width="152.4" height="77.4"/>
<rect id="XMLID_135_" x="2125.6" y="895.1" class="st4" width="152.4" height="77.4"/>
<line id="XMLID_136_" class="st16" x1="1775.3" y1="1005.7" x2="1923.9" y2="1005.7"/>
<line id="XMLID_137_" class="st16" x1="1775.3" y1="1032.4" x2="1923.9" y2="1032.4"/>
<line id="XMLID_138_" class="st16" x1="1775.3" y1="1058.2" x2="1923.9" y2="1058.2"/>
<line id="XMLID_141_" class="st16" x1="1951.1" y1="1006.2" x2="2099.8" y2="1006.2"/>
<line id="XMLID_140_" class="st16" x1="1951.1" y1="1032.9" x2="2099.8" y2="1032.9"/>
<line id="XMLID_139_" class="st16" x1="1951.1" y1="1058.7" x2="2099.8" y2="1058.7"/>
<line id="XMLID_144_" class="st16" x1="2127.4" y1="1006.2" x2="2276.1" y2="1006.2"/>
<line id="XMLID_143_" class="st16" x1="2127.4" y1="1032.9" x2="2276.1" y2="1032.9"/>
<line id="XMLID_142_" class="st16" x1="2127.4" y1="1058.7" x2="2276.1" y2="1058.7"/>
<g id="XMLID_133_">
	<rect id="XMLID_147_" x="1618.4" y="268.5" class="st9" width="156.8" height="157.7"/>
	<line id="XMLID_146_" class="st9" x1="1618.4" y1="426.2" x2="1775.3" y2="268.5"/>
	<line id="XMLID_145_" class="st9" x1="1775.3" y1="426.2" x2="1618.4" y2="268.5"/>
</g>
<g id="XMLID_148_">
	<g id="XMLID_236_">
		<polyline id="XMLID_268_" class="st9" points="1653.7,968.2 1653.7,979.1 1642.8,979.1 		"/>
		<line id="XMLID_267_" class="st19" x1="1615.4" y1="979.1" x2="1615.3" y2="979.1"/>
		<line id="XMLID_266_" class="st20" x1="1615.3" y1="979.1" x2="1417.4" y2="979.1"/>
		<polyline id="XMLID_248_" class="st9" points="1417.4,979.1 1406.5,979.1 1406.5,968.2 		"/>
		<line id="XMLID_244_" class="st21" x1="1406.5" y1="939.9" x2="1406.5" y2="939.8"/>
		<line id="XMLID_243_" class="st22" x1="1406.5" y1="939.8" x2="1406.5" y2="735.3"/>
		<polyline id="XMLID_242_" class="st9" points="1406.5,735.3 1406.5,724.5 1417.4,724.5 		"/>
		<line id="XMLID_241_" class="st19" x1="1444.8" y1="724.5" x2="1444.9" y2="724.5"/>
		<line id="XMLID_240_" class="st20" x1="1444.9" y1="724.5" x2="1642.8" y2="724.5"/>
		<polyline id="XMLID_239_" class="st9" points="1642.8,724.5 1653.7,724.5 1653.7,735.3 		"/>
		<line id="XMLID_238_" class="st21" x1="1653.7" y1="763.7" x2="1653.7" y2="763.7"/>
		<line id="XMLID_237_" class="st22" x1="1653.7" y1="763.7" x2="1653.7" y2="968.2"/>
	</g>
</g>
<g id="XMLID_149_">
	<line id="XMLID_151_" class="st16" x1="1986.1" y1="103.7" x2="1986.1" y2="165.2"/>
	<line id="XMLID_150_" class="st16" x1="1955.3" y1="134.4" x2="2016.9" y2="134.4"/>
</g>
<path id="XMLID_188_" class="st23" d="M2025.4,575c0-185,165.9-335,370.6-335s370.6,150,370.6,335v1150.5"/>
<rect id="XMLID_125_" x="1740.4" y="575" class="st16" width="570.2" height="531.5"/>
<path id="XMLID_156_" class="st16" d="M2855.5,391.8l60.3-80.2c0.2-0.3,0.6-0.5,1-0.5h339.7c0.4,0,0.8,0.2,1,0.5l57,80.2
	c1,1.5,0,3.5-1.8,3.5h-455.4C2855.5,395.4,2854.4,393.3,2855.5,391.8z"/>
<path id="XMLID_154_" class="st16" d="M2917.7,317.5l64,84.2l108.4-82.1c1.7-1.3,4-1.2,5.6,0.2l95.8,81.9l67.1-84.2"/>
<path id="XMLID_158_" class="st16" d="M3191.5,401.8l-103.6,213.9c-0.6,1.2-2.3,1.2-2.9,0l-103.2-213.9"/>
<polyline id="XMLID_157_" class="st9" points="2870.4,765 2891.7,785.3 2938.7,726.5 "/>
<polyline id="XMLID_160_" class="st9" points="2870.4,915 2891.7,935.3 2938.7,876.5 "/>
<polyline id="XMLID_161_" class="st9" points="2870.4,1051.2 2891.7,1071.5 2938.7,1012.7 "/>
<line id="XMLID_162_" class="st9" x1="2972.2" y1="744.4" x2="3226.8" y2="744.4"/>
<line id="XMLID_163_" class="st9" x1="2972.2" y1="800.6" x2="3156.1" y2="800.6"/>
<line id="XMLID_185_" class="st9" x1="2972.2" y1="889.6" x2="3226.8" y2="889.6"/>
<line id="XMLID_184_" class="st9" x1="2972.2" y1="945.8" x2="3156.1" y2="945.8"/>
<line id="XMLID_187_" class="st9" x1="2972.2" y1="1028" x2="3226.8" y2="1028"/>
<line id="XMLID_186_" class="st9" x1="2972.2" y1="1084.2" x2="3156.1" y2="1084.2"/>
<rect id="XMLID_159_" x="1250.4" y="499.3" class="st24" width="128.2" height="128.2"/>
<path id="XMLID_190_" class="st25" d="M3325.8,2086.8c0,154.4-125.2,279.6-279.6,279.6c-154.4,0-279.6-125.2-279.6-279.6v-6.5
	v-354.7v-14.3V582.8c0-181.5-164.4-328.6-367.3-328.6s-367.3,147.1-367.3,328.6"/>
<g id="XMLID_203_">
	<circle id="XMLID_153_" class="st26" cx="3046.2" cy="2035.5" r="129.3"/>
	<circle id="XMLID_191_" class="st27" cx="3046.2" cy="2035.5" r="179.4"/>
</g>
<polyline id="XMLID_192_" class="st28" points="3572.9,1956.9 3511.5,2014.2 3572.9,2065.6 "/>
<line id="XMLID_195_" class="st28" x1="3511.5" y1="2014.2" x2="3572.9" y2="2065.6"/>
<polyline id="XMLID_194_" class="st28" points="3708,2068.6 3769.4,2011.2 3708,1959.9 "/>
<line id="XMLID_193_" class="st28" x1="3769.4" y1="2011.2" x2="3708" y2="1959.9"/>
<line id="XMLID_197_" class="st28" x1="3666.5" y1="1927.7" x2="3617.2" y2="2096.8"/>
<path id="XMLID_200_" class="st28" d="M3581.1,1679.8v20.5c0,17.9-14.6,32.5-32.5,32.5H3132c-17.9,0-32.5-14.6-32.5-32.5v-20.5"/>
<path id="XMLID_198_" class="st28" d="M3099.5,1480.7v-33.3c0-17.9,14.6-32.5,32.5-32.5h416.7c17.9,0,32.5,14.6,32.5,32.5v32.4"/>
<polyline id="XMLID_201_" class="st28" points="3139.3,1732.8 3031.3,1732.8 3031.3,1766.5 3064.5,1782.2 3623.3,1782.2 
	3649.3,1766.5 3649.3,1732.8 3556,1732.8 "/>
<rect id="XMLID_199_" x="3129.8" y="1447.8" class="st4" width="411.7" height="250.5"/>
<path id="XMLID_202_" class="st29" d="M3181.5,1617.3c-11.7,21.8-34.5,36.6-60.8,36.6c-28.6,0-53.2-17.7-63.7-42.8
	c20.9,0,41.7,0,62.6,0.1c6-9.4,12-18.8,18-28.2l-18.3-28.9h-61.2c11-23.8,34.9-40.3,62.6-40.3c25.5,0,47.7,14,59.7,34.8h328.4
	c12-20.8,34.3-34.8,59.7-34.8c27.7,0,51.6,16.5,62.6,40.3h-61.2l-18.3,28.9c5.9,9.3,11.8,18.6,17.8,27.8c20.9,0.1,41.9,0.2,62.8,0.3
	c-10.5,25.2-35.1,42.8-63.7,42.8c-26.2,0-49-14.8-60.8-36.6H3181.5z"/>
<path id="XMLID_215_" class="st30" d="M3845.5,889.2v-66.4h-35.6c-5.9-30.2-18.6-58.1-36.4-81.8l23.9-23.9l-46.9-46.9l-25.1,25.1
	c-24.5-16.5-52.9-27.7-83.6-32v-33.8h-66.4v35.6c-30.2,5.9-58.1,18.6-81.8,36.4l-23.9-23.9l-46.9,46.9l25.1,25.1
	c-16.5,24.5-27.7,52.9-32,83.6h-33.8v66.4h35.6c5.9,30.2,18.6,58.1,36.4,81.8l-23.9,23.9l46.9,46.9l25.1-25.1
	c24.5,16.5,52.9,27.7,83.6,32v33.8h66.4v-35.6c30.2-5.9,58.1-18.6,81.8-36.4l23.9,23.9l46.9-46.9l-25.1-25.1
	c16.5-24.5,27.7-52.9,32-83.6H3845.5z"/>
<polygon id="XMLID_205_" class="st31" points="3505,855.1 3527.6,836.2 3546.5,876.9 3501.4,917 3495.6,903.2 3511.6,884.2 "/>
<polygon id="XMLID_207_" class="st31" points="3586.6,927.9 3586.6,912.6 3597.5,876.6 3580,868.2 3580,855.8 3603.3,836.2 
	3628.8,848.5 3636.1,843.4 3608.1,815 3631,811.4 3631,795.4 3643.4,795.4 3643.4,787.4 3670.3,805.6 3738,804.1 3750.4,842.7 
	3750.4,880.6 3699.4,921.4 3696.5,891.5 3673.2,896.6 3669.6,865.3 3655,882.8 3638.3,861.2 3633.2,876.6 3638.3,890 "/>
<polygon id="XMLID_206_" class="st31" points="3588.8,772.8 3588.8,740.8 3626.6,740.8 3607.7,763.4 "/>
<polygon id="XMLID_209_" class="st31" points="3564,791 3564,768.4 3550.2,776.5 3540,776.5 3540,756.8 3543.3,744.8 3505.4,774.6 
	3488.9,807.3 3503.8,827 3501.9,814.7 3507.7,797.9 3521,792.1 3524.2,804.7 "/>
<circle id="XMLID_204_" class="st32" cx="3613.8" cy="861.2" r="142.2"/>
<path id="XMLID_212_" class="st32" d="M3898.1,1654V846.5V816c0-160-129.7-289.8-289.8-289.8c-160,0-289.8,129.7-289.8,289.8v285.5"
	/>
<path id="XMLID_213_" class="st32" d="M3898.1,1654c0,135.1,114.1,244.7,254.9,244.7c140.8,0,254.9-109.5,254.9-244.7V1351"/>
<path id="XMLID_214_" class="st32" d="M4153,1431c-107.1,0-193.9,86.8-193.9,193.9s86.8,193.9,193.9,193.9
	c107.1,0,193.9-86.8,193.9-193.9"/>
<path id="XMLID_216_" class="st32" d="M4011.4,1624.8c0,78.2,63.4,141.6,141.6,141.6c78.2,0,141.6-63.4,141.6-141.6"/>
<path id="XMLID_217_" class="st32" d="M4189.1,1525.6c0,43.5,35.3,78.9,78.9,78.9s78.9-35.3,78.9-78.9V1351"/>
<line id="XMLID_218_" class="st32" x1="4468.5" y1="1442" x2="4468.5" y2="1931.6"/>
<path id="XMLID_208_" class="st32" d="M4346.8,2053.2c67.2,0,121.7-54.5,121.7-121.7"/>
<path id="XMLID_220_" class="st32" d="M4669.5,1745.3c0,36.9-29.9,66.7-66.7,66.7s-66.7-29.9-66.7-66.7V1351"/>
<path id="XMLID_221_" class="st32" d="M4501.1,1799.2c17.9,38.2,56.7,64.7,101.7,64.7c62,0,112.3-50.3,112.3-112.3
	s-50.3-112.3-112.3-112.3"/>
<g id="XMLID_245_">
	<line id="XMLID_247_" class="st16" x1="4924.9" y1="666.3" x2="4881.3" y2="709.8"/>
	<line id="XMLID_246_" class="st16" x1="4881.3" y1="666.3" x2="4924.9" y2="709.8"/>
</g>
<g id="XMLID_252_">
	<line id="XMLID_254_" class="st16" x1="3963" y1="239.4" x2="3919.5" y2="283"/>
	<line id="XMLID_253_" class="st16" x1="3919.5" y1="239.4" x2="3963" y2="283"/>
</g>
<g id="XMLID_255_">
	<line id="XMLID_257_" class="st16" x1="4057.3" y1="497" x2="4013.7" y2="540.5"/>
	<line id="XMLID_256_" class="st16" x1="4013.7" y1="497" x2="4057.3" y2="540.5"/>
</g>
<g id="XMLID_258_">
	<line id="XMLID_260_" class="st16" x1="4225.9" y1="109.3" x2="4182.4" y2="152.9"/>
	<line id="XMLID_259_" class="st16" x1="4182.4" y1="109.3" x2="4225.9" y2="152.9"/>
</g>
<g id="XMLID_249_">
	<line id="XMLID_251_" class="st16" x1="4680.4" y1="5.7" x2="4636.9" y2="49.3"/>
	<line id="XMLID_250_" class="st16" x1="4636.9" y1="5.7" x2="4680.4" y2="49.3"/>
</g>
<line id="XMLID_261_" class="st16" x1="4666.2" y1="212.8" x2="4903.1" y2="212.8"/>
<line id="XMLID_262_" class="st16" x1="4838.3" y1="254" x2="4948" y2="254"/>
<line id="XMLID_263_" class="st16" x1="4940.8" y1="175.1" x2="5066.4" y2="175.1"/>
<line id="XMLID_264_" class="st16" x1="4743.4" y1="357.9" x2="4811.6" y2="357.9"/>
<line id="XMLID_265_" class="st16" x1="4940.8" y1="483.7" x2="5075.4" y2="483.7"/>
<circle id="XMLID_222_" class="st0" cx="4447" cy="782.7" r="335.7"/>
<circle id="XMLID_224_" class="st33" cx="4447.2" cy="776.5" r="425.1"/>
<g id="XMLID_223_">
	<g id="XMLID_4_">
		<path id="XMLID_109_" class="st34" d="M4447,882c-220.9-184.3,0-351.6,0-351.6"/>
		<path id="XMLID_110_" class="st34" d="M4447,882c220.9-184.3,0-351.6,0-351.6"/>
	</g>
	<path id="XMLID_111_" class="st34" d="M4539.2,753.8c4.2,10.5,8.4,21.1,12.6,31.6c34.1,95.1-24.4,134.1-24.4,134.1
		c-80.5-69.5-165.8,0-165.8,0c-54.9-68.3-18.3-134.1-18.3-134.1l13.7-24.7"/>
	<path id="XMLID_164_" class="st34" d="M4449.8,712.6L4449.8,712.6c-20.9,0-38-17.1-38-38v-22.4c0-20.9,17.1-38,38-38l0,0
		c20.9,0,38,17.1,38,38v22.4C4487.7,695.5,4470.6,712.6,4449.8,712.6z"/>
	<line id="XMLID_166_" class="st35" x1="4376" y1="976" x2="4376" y2="1032.5"/>
	<line id="XMLID_167_" class="st35" x1="4520.7" y1="976" x2="4520.7" y2="1032.5"/>
	<line id="XMLID_219_" class="st35" x1="4449.8" y1="940.8" x2="4449.8" y2="972.5"/>
	<path id="XMLID_165_" class="st36" d="M4449.8,1013.6L4449.8,1013.6c-8.4,0-15.4,6.9-15.4,15.4l0,0c0,8.4,6.9,15.4,15.4,15.4l0,0
		c8.4,0,15.4-6.9,15.4-15.4l0,0C4465.1,1020.5,4458.2,1013.6,4449.8,1013.6z"/>
</g>
<path id="XMLID_18_" class="st16" d="M3085,615.7"/>
<path id="XMLID_17_" class="st16" d="M2854.5,401.8"/>
<line id="XMLID_2_" class="st16" x1="2857.3" y1="395.4" x2="3085" y2="615.7"/>
<line id="XMLID_16_" class="st16" x1="3312.7" y1="395.4" x2="3085" y2="615.7"/>
</svg>
